<?xml version="1.0" encoding="UTF-8"?>
<svg xmlns="http://www.w3.org/2000/svg" xmlns:xlink="http://www.w3.org/1999/xlink" width="40px" height="40px" viewBox="0 0 40 40" version="1.1">
<g id="surface1">
<path style="fill-rule:nonzero;fill:rgb(100%,100%,100%);fill-opacity:1;stroke-width:1;stroke-linecap:butt;stroke-linejoin:miter;stroke:rgb(100%,100%,100%);stroke-opacity:1;stroke-miterlimit:4;" d="M 29 17 L 23.6 17 C 21.8 17 20.4 15.5 20.4 13.7 C 20.4 13.4 20.4 13 19.3 13 L 12.7 13 C 11.6 13 11.6 13.4 11.6 13.7 C 11.6 15.5 10.2 17 8.4 17 L 3 17 C 2.4 17 2 16.6 2 16 C 2 11 5.9 7 10.6 7 L 21.4 7 C 26.1 7 30 11 30 16 C 30 16.6 29.6 17 29 17 Z M 29 17 " transform="matrix(1.25,0,0,1.25,0,0)"/>
<path style="fill-rule:nonzero;fill:rgb(100%,100%,100%);fill-opacity:1;stroke-width:1;stroke-linecap:butt;stroke-linejoin:miter;stroke:rgb(100%,100%,100%);stroke-opacity:1;stroke-miterlimit:4;" d="M 23.6 19 C 21.2 19 19.1 17.3 18.5 15 L 13.3 15 C 12.7 17.3 10.7 19 8.2 19 L 7.2 19 C 6.1 21.4 5 24.4 5 27 C 5 27.6 5.4 28 6 28 L 26 28 C 26.6 28 27 27.6 27 27 C 27 24.4 25.9 21.4 24.7 19 Z M 16 25 C 13.8 25 12 23.2 12 21 C 12 18.8 13.8 17 16 17 C 18.2 17 20 18.8 20 21 C 20 23.2 18.2 25 16 25 Z M 16 25 " transform="matrix(1.25,0,0,1.25,0,0)"/>
<path style="fill-rule:nonzero;fill:rgb(100%,100%,100%);fill-opacity:1;stroke-width:1;stroke-linecap:butt;stroke-linejoin:miter;stroke:rgb(100%,100%,100%);stroke-opacity:1;stroke-miterlimit:4;" d="M 23 30 C 22.4 30 22 29.6 22 29 L 22 27 C 22 26.4 22.4 26 23 26 C 23.6 26 24 26.4 24 27 L 24 29 C 24 29.6 23.6 30 23 30 Z M 23 30 " transform="matrix(1.25,0,0,1.25,0,0)"/>
<path style="fill-rule:nonzero;fill:rgb(100%,100%,100%);fill-opacity:1;stroke-width:1;stroke-linecap:butt;stroke-linejoin:miter;stroke:rgb(100%,100%,100%);stroke-opacity:1;stroke-miterlimit:4;" d="M 9 30 C 8.4 30 8 29.6 8 29 L 8 27 C 8 26.4 8.4 26 9 26 C 9.6 26 10 26.4 10 27 L 10 29 C 10 29.6 9.6 30 9 30 Z M 9 30 " transform="matrix(1.25,0,0,1.25,0,0)"/>
</g>
</svg>
