<svg xmlns="http://www.w3.org/2000/svg" width="85" height="100"><path style="fill:none;stroke-width:2;stroke-linecap:butt;stroke-linejoin:miter;stroke:#ff0702;stroke-opacity:1;stroke-miterlimit:4" d="M447.347 62.815a1.775 1.775 0 0 0-.978 1.6l-.367 11.813c0 .246.184.43.428.492 1.712.123 1.1-10.705 1.1-12.12 0-.554.306-1.108.734-1.415a1.72 1.72 0 0 1 1.528-.37c1.772.37 4.217-.369 5.44.493 2.628 1.845 1.405 10.028.794 12.796a.587.587 0 0 0 .245.616c.244.123.489.061.672-.062 1.956-1.6.856-9.536.55-11.874-.611-4.122-7.457-3.384-10.146-1.969M485.915 119.479c3.667-.308 6.417-4.061 6.05-8.368-.366-4.368-3.606-7.629-7.273-7.382-3.667.307-6.418 4.06-6.05 8.428.305 4.307 3.605 7.63 7.273 7.322M499.911 112.157l1.773-1.169c.489-.307.489-.553-.122-.676-.795-.124-1.467.184-1.956.984-4.707 7.629 5.623 11.136 9.412 6.152.184-.246.306-.553.306-.861-.061-2.953-.306-5.845-.795-8.736-.978-5.845-9.657-3.815-9.29-1.908 0 .062.061.185.183.246.123 0 .245 0 .306-.061 8.496-5.291 8.496 5.599 8.557 10.151 0 .308-.122.616-.306.862-3.545 3.937-10.513.676-8.679-4.184.122-.308.306-.615.611-.8M470.818 358.743l2.078 3.076c.183.246.428.431.733.431 11.369.861 8.313-17.227 7.335-23.379-.917-6.09-1.834-12.182-2.629-18.272-1.589-11.505-4.95-23.318-6.6-35.192-.367-2.645-1.773-5.23-2.14-8.06-.428-3.076-1.711-15.257-4.828-15.872-3.24-.739-6.051-1.785-9.413-1.723-14.303.185-28.544.37-42.846.738-23.593.492-47.308-.246-70.962-.492-.306 0-.306-.123-.122-.308l.244-.246c.245-.246.184-.369-.122-.369-7.273-.246-14.547-.123-21.76.492-.305 0-.61.123-.916.308-1.222.984-2.2 1.538-2.873 1.6-12.835 1.292-23.776 11.012-33.922 15.873-5.807 2.83-7.212 5.783-10.085 12.181-1.04 2.4-2.445 5.045-4.279 7.937-4.767 7.506-9.107 16.427-12.957 26.824-.123.37-.123.677-.061 1.046.366 2.338 0 4.553-1.162 6.644a1.71 1.71 0 0 0-.305.985c-.061 6.09-1.712 12.797-2.078 17.719-1.223 14.95-1.529 31.377 2.933 45.835 1.04 3.445 3.118 7.075 4.462 10.766.55 1.538.673 3.692 1.773 5.968 1.222 2.584 2.567 10.767 6.05 13.35 2.751 2.092 4.952 4.8 6.48 7.999.427.86 1.283 1.907 2.506 3.26 5.195 5.476 10.207 9.906 14.974 13.35.245.185.55.247.856.185l3.056-.676M70.595 379.107c8.924.739 18.703 1.046 17.236-11.443-.978-8.306-13.019-6.214-18.764-6.275-.183 0-.367.184-.367.369.184 10.09.306 20.118.367 30.208 0 .43.183.677.611.615a.42.42 0 0 0 .428-.43l-.122-12.49a.56.56 0 0 1 .183-.43c.123-.124.245-.185.428-.124M413.425 623.232c-3.056 12.367 14.18 20.119 11.124 1.108-1.04-6.83-9.474-7.752-11.124-1.108M527.477 662.361c-2.078-.369-4.034-1.292-5.929-.923-5.929 1.17-6.173 11.69-2.2 15.074 1.956 1.6 4.523 1.169 7.212.615 5.44-1.23 3.24-8.613 2.69-12.428-.49-3.26.977-6.03.244-9.536-.061-.308-.306-.492-.611-.43-.673.122-.061 5.66-.734 7.26-.122.245-.427.43-.672.368M486.465 677.62c3.79-.616 6.356-4.615 5.684-9.045-.611-4.43-4.279-7.567-8.068-7.013-3.79.553-6.357 4.614-5.746 9.043.673 4.43 4.279 7.568 8.13 7.014M918.776 1239.759c.489-.308.978-.308 1.406 0 .06.061.183.123.305.061.061 0 .183-.061.245-.184 2.078-3.753 2.261-7.63.489-11.567-.123-.307-.184-.676-.062-.984l.795-2.953c.122-.37.367-.615.734-.738 2.078-.554 5.073-1.415 5.011-3.876.062-.123 0-.247-.122-.37-.122-.061-.244-.123-.367-.123-2.017.185-3.667 1.6-5.44 1.477-2.444-.123-3.85-1.477-4.828-3.814-.55-1.292-2.261-5.415-3.545-5.968a1.33 1.33 0 0 1-.611-.677l-2.14-5.23c-.122-.246-.366-.43-.672-.369-.428.123-.917.062-1.406-.184M949.764 1220.256c-15.83-6.706-16.136 23.686 2.628 14.335.306-.123.55-.43.49-.8l-.062-20.364c-.06-.492-.244-.923-.672-1.17-2.323-1.537-1.467 6.276-1.834 7.691 0 .123-.122.246-.244.308-.061 0-.184.061-.306 0M1086.554 1218.964c0 .369-.122.738-.49.984-.305.185-.672.185-1.038.062-9.719-5.107-12.347 6.583-9.535 13.043 2.567 5.906 8.068 3.753 12.53 2.092a.886.886 0 0 0 .55-.677c1.406-6.276.06-15.32-.49-21.78-.06-.246-.183-.492-.427-.615a.658.658 0 0 0-.672 0c-.856.492-2.262 1.354-1.162 2.461.245.185.367.492.367.8l.367 3.63" transform="scale(.06391 .0635)"/><path style="stroke:none;fill-rule:nonzero;fill:#ff0702;fill-opacity:1" d="M77.066 77.102c-.714.707-1.332 1.472-2.082 2.148-1.02.922-2.027 1.883-3.109 2.727-3.21 2.503-6.207 4.453-9.785 6.597-3.113 1.864-6.375 3.5-9.61 5.14-1.425.724-2.902 1.368-4.351 2.048a117.18 117.18 0 0 1-5.836 2.55.652.652 0 0 1-.527-.003c-5.121-2.133-10.403-4.676-15.04-7.145-1.347-.719-3.18-1.75-5.492-3.102-.144-.082-.316-.214-.472-.312a89.583 89.583 0 0 1-7.082-4.723c-.586-.433-1.512-1.172-2.774-2.218-.511-.426-.988-.926-1.508-1.364-.617-.515-1.101-.976-1.445-1.379-1.344-1.558-2.672-3.082-3.66-4.968a15.26 15.26 0 0 1-1.063-2.575c-.097-.316-.171-.793-.285-1.214-.039-.153-.039-.332-.062-.47-.094-.526-.184-1.023-.184-1.57 0-5.238-.02-10.476-.011-15.714.027-15.434-.028-29.485 0-43.89.003-1.845-.036-3.544.105-5.188.035-.426.375-.457.687-.457 7.051-.008 14.102-.012 21.153-.008 1.297 0 2.902-.04 3.87-.035 2.778.007 5.56.035 8.337.003 1.43-.015 2.86-.042 4.285-.015 1.57.027 3.316-.004 5.125.02.434.007.86.007 1.277.003 3.336-.031 6.668-.043 10.004-.031 1.602.004 3.207-.02 4.809-.023 6.129-.012 12.258.004 18.387-.012.421-.004.605.156.605.566-.02 7.895-.027 14.547-.023 19.957 0 1.953 0 3.91-.016 5.867-.008.872-.023 1.75-.004 2.625.004.247 0 .512-.016.793-.043.704.036 1.329.008 2-.074 1.833-.066 3.641-.066 5.524-.004 4.062-.004 8.125 0 12.187 0 1.164.105 2.395.11 3.516.003 1.879.003 5.973 0 12.285 0 1.414-.134 2.711-.626 4.043a15.826 15.826 0 0 1-1.746 3.39c-.383.563-.91 1.259-1.586 2.09a4.393 4.393 0 0 1-.3.337zM28.59 3.988a.113.113 0 0 0-.063.102l-.023.75c0 .015.012.027.027.031.11.008.07-.68.07-.77 0-.035.02-.07.047-.09a.11.11 0 0 1 .098-.023c.113.024.27-.023.348.032.168.117.09.636.05.812a.037.037 0 0 0 .016.04.042.042 0 0 0 .043-.005c.125-.101.055-.605.035-.754-.039-.261-.476-.215-.648-.125zm15.207 46.188c1.3-.07 2.61-.02 3.91-.028 3.969-.023 7.938.008 11.906.09 3.086.067 6.313.004 9.867-.054 2.211-.036 4.922-.047 8.137-.04.305 0 .367-.253.367-.519.012-11.945-.011-23.89-.015-35.836 0-2.695-.024-5.5-.008-8.078.004-.695-.383-.473-.836-.473a2006.5 2006.5 0 0 1-15.336-.035c-.648-.004-1.488-.035-2.23-.031-.461.004-.91-.059-1.375-.059-4.868-.004-9.735-.004-14.602 0-.316 0-.86.012-1.293-.004-.34-.015-.488.278-.492.586v1.64c.004.548.07 1.247.055 1.876-.02.684.09 1.531.023 2.039-.074.578-.012 1.266-.012 1.691.016 2.977.012 5.954 0 8.93-.008.871-.07 1.942-.035 2.918.012.352.012.672.008.961-.02.785.027 1.48.02 2.145-.012.75-.008 1.414 0 2.125.003.425-.028.953-.016 1.43.023.968-.004 1.835.012 2.753.02 1.469.023 2.934.011 4.402a.1.1 0 0 0 .008.047c.004.008.004.02.004.032.004 3.12.004 6.246 0 9.37 0 .575-.094 1.15-.152 1.731a.091.091 0 0 1-.075.078c-.336.047-.66.078-1.015.075a125.15 125.15 0 0 0-3.774-.016c-4.68.039-9.359.05-14.039.035-4.535-.02-7.726-.074-11.46-.07-1.407.004-2.805-.028-4.215.015a7.295 7.295 0 0 0-.77.063c-.246.035-.262.375-.262.562.02 1.11.024 2.22.012 3.328-.004.504.035 1.094.027 1.641-.007.5-.011.91-.007 1.23.02 1.606-.016 2.813.02 4.844.038 2.121.03 4.258-.013 6.38-.011.55.016 1.023.086 1.41.367 2.042 1.672 3.831 2.98 5.398.239.285.528.597.864.933.914.91 1.816 1.899 2.824 2.707 1.692 1.36 3.153 2.575 5.207 3.965 2.633 1.778 5.25 3.39 7.864 4.844.57.32 1.796.988 3.68 2.012 2.202 1.195 4.491 2.238 6.757 3.312 1.723.817 3.543 1.637 5.375 2.297.145.05.277.008.309-.144.07-.36.093-.73.07-1.114a14.772 14.772 0 0 1-.008-1.66c.012-.379-.05-.793-.047-1.164.043-3.992-.011-8.527-.011-12.012V60.406c0-2.96.039-5.933 0-8.894a7.044 7.044 0 0 1 .07-1.14.113.113 0 0 1 .105-.099c.5-.039 1.008-.07 1.52-.097zM31.055 7.586c.234-.02.41-.258.386-.531-.023-.278-.23-.485-.464-.47-.235.02-.41.259-.387.536.02.274.23.484.465.465zm.894-.465.113-.074c.032-.02.032-.035-.007-.043-.051-.008-.094.012-.125.062-.301.485.36.707.601.391a.093.093 0 0 0 .02-.055 3.754 3.754 0 0 0-.051-.554c-.063-.371-.617-.243-.594-.121 0 .003.004.011.012.015.008 0 .016 0 .02-.004.542-.336.542.356.546.645 0 .02-.007.039-.02.054-.226.25-.671.043-.554-.265a.1.1 0 0 1 .04-.05zM18.805 28.617a5.758 5.758 0 0 0 2.136.89c.211.04.352.122.579.134.261.015.492.109.757.129.196.015.368.105.578.12.102.005.2.024.29.051.257.082.523.063.77.118.3.066.605.093.91.086.269-.008.507.082.773.113.097.012.199.039.297.074.445.176.82.273.937.805.074.324.11.648.11.98-.005.469-.528.938-.903 1.149-.328.183-.656.117-1.004.117-.836-.004-1.672-.004-2.508 0-.73 0-1.425.11-2.156.008-.777-.11-1.433-.246-2.05-.72-.442-.339-1.04-.937-1.637-.78a.071.071 0 0 0-.043.039.863.863 0 0 0-.04.386c.07.594.118 1.2.231 1.79.055.292.059.585.11.87.054.313.078.645.132.934.082.43.137.86.172 1.293.016.238.145.899.473.879.586-.039 1.316.012 1.746.016 1.574.004 3.148.007 4.719.007.796 0 1.714-.042 2.57-.046.668-.004 1.25-.028 1.781-.215.473-.168.985-.45 1.54-.84.343-.242.628-.586.855-1.035.39-.762.816-1.532.914-2.399.09-.797.144-1.593.164-2.394.008-.258-.094-.508-.106-.774a3.999 3.999 0 0 0-.218-1.18c-.407-1.171-.75-2.238-1.965-2.933a3.503 3.503 0 0 1-.418-.273c-.504-.38-1-.61-1.649-.692-.48-.062-.96-.137-1.441-.219-1.246-.218-2.516-.347-3.723-.742-.336-.113-.781-.34-.984-.668-.117-.195-.133-.484-.172-.722-.219-1.317.996-1.754 2.043-1.774 1.098-.02 2.285-.113 3.484.031.368.043.774.004 1.098.098.605.172 1.184.602 1.688.969.187.14.238.344.445.48l.133.196c.011.015.027.027.047.027.726.055.53-1.094.468-1.484-.058-.387-.117-.774-.168-1.16-.101-.731-.316-1.481-.422-2.235-.023-.168-.113-.332-.136-.512-.028-.195-.11-.968-.309-1.007-.207-.047-.387-.114-.601-.11-.915.012-1.825.024-2.739.047-1.508.031-3.023-.016-4.535-.031-.02 0-.02-.008-.008-.02l.016-.015c.016-.016.012-.024-.008-.024-.465-.015-.93-.008-1.39.031-.02 0-.04.008-.06.02-.077.063-.14.098-.183.102-.82.082-1.52.699-2.168 1.007-.37.18-.46.368-.644.774-.067.152-.156.32-.274.504a8.988 8.988 0 0 0-.828 1.703.128.128 0 0 0-.004.066c.024.149 0 .29-.074.422a.108.108 0 0 0-.02.063c-.003.386-.109.812-.132 1.125-.078.949-.098 1.992.187 2.91.067.219.2.449.285.683.036.098.043.235.114.38.078.163.164.683.386.847.176.133.317.305.415.508.027.054.082.12.16.207.332.347.652.629.957.847.015.012.035.016.054.012zM4.512 24.07c.57.047 1.195.067 1.101-.726-.062-.528-.832-.395-1.199-.399a.025.025 0 0 0-.023.024c.011.64.02 1.277.023 1.918 0 .027.012.043.04.039a.027.027 0 0 0 .026-.028l-.007-.793c0-.011.004-.02.011-.027.008-.008.016-.012.028-.008zm21.91 15.5c-.195.785.906 1.278.71.07-.066-.433-.605-.492-.71-.07zm7.289 2.485c-.133-.024-.258-.082-.379-.059-.379.074-.395.742-.14.957.124.102.288.074.46.04.348-.079.207-.548.172-.79-.031-.207.063-.383.016-.605-.004-.02-.02-.032-.04-.028-.042.008-.003.36-.046.461-.008.016-.027.028-.043.024zm-2.621.968c.242-.039.406-.293.363-.574-.039-.281-.273-.48-.515-.445-.243.035-.407.293-.368.574.043.281.274.48.52.445zm27.629 35.692c.031-.02.062-.02.09 0 .004.004.011.008.02.004.003 0 .01-.004.015-.012a.777.777 0 0 0 .031-.734.087.087 0 0 1-.004-.063l.05-.187a.07.07 0 0 1 .048-.047c.133-.035.324-.09.32-.246.004-.008 0-.016-.008-.024a.056.056 0 0 0-.023-.008c-.13.012-.235.102-.348.094-.156-.008-.246-.094-.308-.242-.036-.082-.145-.344-.227-.379a.085.085 0 0 1-.04-.043l-.136-.332c-.008-.016-.023-.027-.043-.023a.124.124 0 0 1-.09-.012 4.77 4.77 0 0 1-.07-.809c.012-1.129.031-2.273.059-3.433 0-.035.027-.067.066-.07 1.356-.176 2.707-.063 4.078-.004a6.545 6.545 0 0 0 2.969-.598c.504-.23.832-.39.988-.488 1.399-.871 1.867-2.77 1.88-4.297.003-.942.206-1.864.042-2.809-.121-.691.074-1.441-.148-2.105-.246-.743-.489-1.414-.953-2.114-1.11-1.687-3.399-1.898-5.235-1.812-.933.047-1.781.125-2.785.027-1.547-.152-3.168-.082-4.723-.078-.484.004-.984-.043-1.476-.062-.153-.008-.301.02-.446.074a.085.085 0 0 0-.042.039c-.118.27-.075.851.054 1.129.16.351.371.703.465 1.054.121.45.164.903.14 1.368-.05.894-.007 1.789-.019 2.687-.008.75.055 1.434.043 2.082-.02.942.031 1.957.027 2.82-.003 2.083-.003 4.16 0 6.239 0 .777-.167 1.48-.57 2.148-.094.156-.191.403-.293.739-.148.492.301.66.688.667.62.012 1.242.016 1.867.008.562-.004 1.316.028 1.98-.004.606-.027 1.22.024 1.746.016a.426.426 0 0 0 .32-.16zm1.98-1.238c-1.011-.426-1.031 1.503.168.91.02-.008.035-.028.031-.051l-.003-1.293c-.004-.031-.016-.059-.043-.074-.149-.098-.094.398-.118.488 0 .008-.007.016-.015.02-.004 0-.012.003-.02 0zm8.742-.082a.071.071 0 0 1-.03.062.078.078 0 0 1-.067.004c-.621-.324-.79.418-.61.828.164.375.516.238.801.133a.056.056 0 0 0 .035-.043c.09-.399.004-.973-.03-1.383-.005-.016-.013-.031-.028-.039a.042.042 0 0 0-.043 0c-.055.031-.145.086-.074.156a.063.063 0 0 1 .023.051zm0 0"/><path style="stroke:none;fill-rule:nonzero;fill:#ff0702;fill-opacity:1" d="M28.59 3.988c.172-.09.61-.136.648.125.02.149.09.653-.035.754a.042.042 0 0 1-.043.004.037.037 0 0 1-.015-.039c.039-.176.117-.695-.051-.812-.078-.055-.235-.008-.348-.032a.11.11 0 0 0-.098.024.115.115 0 0 0-.046.09c0 .09.039.777-.07.77-.016-.005-.028-.017-.028-.032l.023-.75c0-.043.024-.082.063-.102zM31.055 7.586c.234-.02.41-.258.386-.531-.023-.278-.23-.485-.464-.47-.235.02-.41.259-.387.536.02.274.23.484.465.465zM31.91 7.172c-.117.308.328.516.555.266a.093.093 0 0 0 .02-.055c-.005-.29-.005-.98-.547-.645-.004.004-.012.004-.02.004-.008-.004-.012-.012-.012-.015-.023-.122.532-.25.594.12.031.184.047.368.05.555 0 .02-.007.04-.019.055-.242.316-.902.094-.601-.39.03-.051.074-.07.125-.063.039.008.039.023.008.043l-.114.074a.1.1 0 0 0-.039.05zM55.2 20.45a490.01 490.01 0 0 1-4.294-4.255c-.16-.164-.246-.367-.011-.511.015-.008.039-.012.054-.004.203.097.301.261.426.383a2989.86 2989.86 0 0 1 3.523 3.503c.247.243.559.508.77.715.113.11.137.227.062.36a.054.054 0 0 1-.046.027.675.675 0 0 1-.485-.219zM64.117 20.273l4.586-4.539a.215.215 0 0 1 .3 0l.005.004a.21.21 0 0 1 0 .297l-4.586 4.54a.208.208 0 0 1-.3 0h-.005a.215.215 0 0 1 0-.302zM30.09 22.777c.035.028.074.055.113.082.684.477.258-1.93.23-2.093-.038-.227-.07-.45-.093-.676-.063-.535-.211-.922-.297-1.39-.113-.637-.223-1.11-.332-1.665-.04-.191-.16-.285-.36-.285-1.18 0-3.03-.05-4.726.004a84.83 84.83 0 0 1-3.152.043c-1.125-.008-2.227.336-3.196.851-.312.165-.496.352-.675.676-.387.7-.91 1.551-1.094 2.235-.07.261-.153.773-.246 1.535-.067.57-.07 1.168.054 1.765.075.348.122.696.137 1.051.008.125.031.242.074.352.442 1.09.809 2.203 1.758 2.953.172.137.344.27.52.402l-.196.043c-.02.004-.039 0-.054-.012a6.94 6.94 0 0 1-.957-.847 1.062 1.062 0 0 1-.16-.207 1.383 1.383 0 0 0-.415-.508c-.222-.164-.308-.684-.386-.848-.07-.144-.078-.281-.114-.379-.085-.234-.218-.464-.285-.683-.285-.918-.265-1.961-.187-2.91.023-.313.129-.739.133-1.125 0-.024.007-.047.02-.063.073-.133.097-.273.073-.422a.128.128 0 0 1 .004-.066c.246-.66.524-1.227.828-1.703.118-.184.207-.352.274-.504.183-.406.273-.594.644-.774.649-.308 1.348-.925 2.168-1.007.043-.004.106-.04.184-.102.02-.012.039-.02.058-.02.461-.039.926-.046 1.391-.03.02 0 .024.007.008.023l-.016.015c-.011.012-.011.02.008.02 1.512.015 3.027.062 4.535.031.914-.023 1.825-.035 2.739-.047.214-.004.394.063.601.11.2.039.281.812.309 1.007.023.18.113.344.136.512.106.754.32 1.504.422 2.234.051.387.11.774.168 1.16.063.391.258 1.54-.468 1.485-.02 0-.036-.012-.047-.027zm0 0"/><path style="stroke:none;fill-rule:nonzero;fill:#ff0702;fill-opacity:1" d="M57.344 27.344c-1.364-.059-3.57.367-4.407-1.262-.253-.488-.394-.965-.23-1.5.36-1.16 1-1.617 2.188-1.785.636-.086 1.113-.113 1.425-.082.54.058 1.36.21 1.356-.54-.008-1.05-.051-2.124.004-3.175.058-1.184 1.27-2.25 2.472-2.04 1.309.227 2.121 1.302 2.059 2.606-.05 1-.027 2.008-.02 3.008 0 .02.012.04.028.047.062.027.129.027.187.05.43.177.82-.015 1.242.036.543.066 1.11-.016 1.63.129.687.187 1.234.598 1.64 1.223.293.449.258 1.414.02 1.882-.438.86-1.16 1.297-2.13 1.36-.66.043-1.402.05-2.222.027-.32-.012-.414.203-.398.492.023.453.054.86.023 1.34-.043.602-.008 1.317-.016 1.797-.011.762-.008 1.52.008 2.281.016.664-.05 1.473 0 2.094.04.477.04.8-.086 1.23-.05.176-.05.325-.133.489-.472.96-1.672 1.664-2.746 1.273-1.425-.511-1.66-1.508-1.656-2.941.004-.813-.031-1.64.02-2.45.113-1.71.093-3.456.066-5.175 0-.13-.156-.406-.324-.414zm-4.125-1.614c.18.594.695.954 1.297 1.043.308.047.601.094.918.102.89.02 1.566-.023 2.273.016.484.023.48.355.465.77-.008.241-.012.405-.012.491-.004 2.754-.004 5.512 0 8.266 0 .266.028.465.086.602.211.5.723.828 1.234.957.301.074.93.093 1.208-.082.476-.301 1.03-.918 1.042-1.512.055-2.996.016-6.051.02-9.078 0-.188.078-.399.277-.41.504-.036 1.29.023 1.953-.008.618-.032 1.333.027 1.88-.328.359-.235.734-.68.792-1.11.098-.719-.02-1.207-.558-1.71-.266-.247-.504-.427-.86-.423-1.27.016-2.246.02-2.937.016-.48-.008-.563-.238-.563-.68-.004-1.105-.004-2.215.004-3.32.008-.684-.254-1.32-.867-1.66-.437-.246-1.11-.309-1.586-.156-.465.144-1.14.695-1.137 1.265.008 1.235.012 2.469.016 3.703 0 .43.027.797-.469.836-.375.028-1.242.028-2.593.004-.41-.004-1.004-.054-1.305.235-.64.617-.836 1.34-.578 2.171zM4.473 24.105l.007.793a.027.027 0 0 1-.027.028c-.027.004-.039-.012-.039-.04a156.98 156.98 0 0 0-.023-1.917c0-.012.011-.024.023-.024.367.004 1.137-.129 1.2.399.093.793-.532.773-1.102.726-.012-.004-.02 0-.028.008a.035.035 0 0 0-.011.027zM68.219 25.242c-.38-.32.281-.426.441-.43.653-.019 1.305-.03 1.961-.039.285-.003.555.067.809.211a.118.118 0 0 1 .054.075c.004.03 0 .062-.02.086a.544.544 0 0 1-.46.218c-.863 0-1.727-.011-2.586-.027-.063-.004-.125-.035-.2-.094zM48.344 25.156a.111.111 0 0 1-.035-.125c.066-.195.586-.191.855-.187.41.004.82.008 1.234.008.395 0 .739-.11 1.164.03.258.087.067.348-.097.423a.618.618 0 0 1-.246.043c-.813.004-1.625.004-2.442 0-.195 0-.293-.078-.433-.192zm0 0"/><path style="stroke:none;fill-rule:nonzero;fill:#ff0702;fill-opacity:1" d="M64.625 30.09c-.29-.254-.586-.5-.867-.762-.176-.164-.18-.336-.008-.512a.047.047 0 0 1 .059-.007c.304.171.546.472.734.644.594.54 1.156 1.106 1.754 1.64a40.996 40.996 0 0 1 1.933 1.845c.254.257.57.417.82.714.266.309-.21.422-.421.215-.664-.66-1.43-1.289-2.02-1.86-.656-.636-1.293-1.316-1.984-1.917zM51.27 33.746c-.09.09-.18.168-.27.23a.145.145 0 0 1-.09.02.128.128 0 0 1-.074-.05c-.11-.176-.027-.301.113-.434.653-.625 1.317-1.242 1.985-1.852.886-.8 1.718-1.633 2.562-2.46.094-.095.691-.65.652-.118-.015.18-.648.68-.804.836-1.305 1.297-2.75 2.512-4.074 3.828zM27.133 39.64c.195 1.208-.906.715-.711-.07.105-.422.644-.363.71.07zM33.754 42.031c.043-.101.004-.453.047-.46.02-.005.035.007.039.027.047.222-.047.398-.016.605.035.242.176.711-.172.79-.172.034-.336.062-.46-.04-.255-.215-.239-.883.14-.957.121-.023.246.035.379.059.016.004.035-.008.043-.024zM31.09 43.023c.242-.039.406-.293.363-.574-.039-.281-.273-.48-.515-.445-.243.035-.407.293-.368.574.043.281.274.48.52.445zM24.953 69.488c0-.136-.11-.383-.277-.363a4.015 4.015 0 0 1-1.13-.082c-1.519-.379-2.507-1.402-2.96-2.879-.055-.18-.066-.406-.117-.617-.063-.266-.032-.496.3-.54.29-.034.626-.034 1.008-.007.305.027.594.137.887.234.477.153 1.117.52 1.496.844.145.125.219.317.477.367.203.04.332-.12.332-.304.004-.579.008-1.153.008-1.727 0-.234-.063-.504-.356-.504-.996.004-2.332-.496-2.996-1.183-.762-.793-1.145-1.704-1.14-2.743 0-.136.16-.18.285-.187.472-.02.949-.024 1.421-.012.02 0 .04.008.059.02.05.035.137.07.258.105.469.137.937.371 1.406.7.176.12.457.495.633.535.226.054.406-.032.414-.282a34.15 34.15 0 0 0 0-1.789c-.004-.219-.125-.351-.34-.363-.371-.016-.754-.188-1.094-.32a7.59 7.59 0 0 1-.683-.29c-.586-.308-.77-.761-1.051-1.308a1.193 1.193 0 0 1-.094-.29c-.043-.26-.289-.784.156-.85.325-.051 1.008-.055 1.399.07.566.18 1.05.492 1.453.937.25.278.531.445.824.125.446-.492.86-.824 1.477-1.027.414-.14.898-.149 1.351-.14.434.003.43.55.348.85-.32 1.18-1.168 1.887-2.375 2.087a7.66 7.66 0 0 0-.797.164c-.144.039-.18.176-.172.316.02.48.012 1.063-.023 1.742-.012.23.074.36.262.395.25.043.437-.102.609-.277.453-.47 1.031-.72 1.723-1.028.336-.152.8-.066 1.183-.144.18-.035.363-.082.531.02.223.136.313.347.27.64-.148 1.012-.648 1.879-1.41 2.547-.64.562-1.492.843-2.332.937-.313.031-.871-.035-.82.45.035.32.035.921.003 1.812-.004.031.02.101.07.207a.085.085 0 0 0 .044.039c.289.125.472.02.695-.2.559-.538 1.21-.91 1.96-1.109.325-.09 1.356-.144 1.65.008.019.008.03.024.042.043.239.543-.101 1.324-.324 1.84-.203.465-.613.914-.992 1.25-.496.441-1.094.695-1.73.844-.426.101-.903-.004-1.297.203a.071.071 0 0 0-.04.043c-.109.258-.046.52-.054.723-.02.632-.024 1.265-.02 1.898.004.047-.027.11-.082.187a.067.067 0 0 1-.05.028c-.16 0-.254-.074-.254-.246-.012-.801-.02-1.602-.024-2.399zM22.34 57.082c.219.445.726.793 1.164.98.234.098.48.075.738.11.34.043.64.027.703-.352a.49.49 0 0 0-.066-.308c-.383-.719-.899-1.254-1.707-1.45-.215-.05-.438.008-.66.024-.274.02-.422.117-.32.41.054.164.062.41.148.586zm3.351 1.012c.196.11.997.086 1.204-.016a2.57 2.57 0 0 0 1.32-1.445c.027-.067.031-.203.015-.41a.08.08 0 0 0-.023-.059.356.356 0 0 0-.355-.137c-.426.067-.887.008-1.247.278-.3.222-.605.523-.906.902-.176.219-.316.711-.008.887zm2.305 4.734c.426-.422.871-.789 1.11-1.27.136-.269.269-.656.304-.956.07-.622-.574-.598-.95-.446-.097.04-.194.063-.284.074-1.113.141-2.106 1.13-2.531 2.086-.145.32-.368 1.145.214 1.196.493.047 1.078-.18 1.688-.383.148-.05.3-.152.45-.3zm-6.3-.59c.636.684 1.226.961 2.109 1.23.648.196 1.472-.062 1.027-.929a1.958 1.958 0 0 1-.133-.328c-.101-.34-.508-.79-.773-1.023-.61-.532-1.008-.88-1.785-.977-.145-.02-.871-.055-1.055.102-.438.37.32 1.613.61 1.925zm.413 5.625c.29.239.578.492.938.633.562.215 1.11.211 1.7.152.019 0 .038-.007.054-.027.234-.27.11-.644-.047-.953-.05-.094-.02-.164-.082-.262-.27-.406-.461-.676-.574-.804-.743-.852-1.684-1.23-2.817-1.141-.277.023-.414.09-.351.394.175.832.57 1.504 1.18 2.008zm7.16-2.402c-.578.035-1.187-.086-1.69.176-.884.457-1.958 1.468-2.099 2.543-.023.191.012.433.227.468.656.098 1.29 0 1.898-.293.774-.37 1.48-1.203 1.68-2.043.055-.234.274-.652.04-.832a.093.093 0 0 0-.055-.02zM27.64 77.809c-.488-.012-.816-.18-.82-.72-.008-.816-.02-1.636-.03-2.452 0-.258.136-.598.167-.895.094-.867.5-1.965 1.121-2.61.219-.226.438-.448.664-.667.301-.293.758-.574 1.04-.895a51.875 51.875 0 0 1 1.894-2.035c.191-.195.32-.453.535-.617.234-.18.539-.39.844-.406.238-.008.586.078.59-.282.015-1.195.02-2.394.02-3.59 0-.925-.22-1.804.675-2.363.273-.168.7-.156 1.008-.125.55.051 1.02.735 1.015 1.254v7.168c.004.625-.172 1.016-.468 1.567a236.501 236.501 0 0 1-3.11 5.59c-.289.503-.144 1.269-.187 1.714-.032.32-.532.38-.785.371-1.391-.03-2.657.028-4.172-.007zm3.364-6.032a.53.53 0 0 1 .117-.527 34.77 34.77 0 0 1 1.223-1.348c.5-.523.965-1.086 1.465-1.613.351-.363.218-.793-.067-1.133a.536.536 0 0 0-.289-.183c-.64-.164-1.05.261-1.422.707-.586.691-1.176 1.379-1.773 2.062-.492.563-1.274.867-1.715 1.445-.594.778-1.148 1.645-1.145 2.637.004.371-.12.719-.105 1.098.023.64.008 1.25-.047 1.824-.043.418.246.649.645.652 1.226.02 2.457.02 3.683.008.41-.004.582-.18.574-.57-.011-.508.07-.879.329-1.348a604.66 604.66 0 0 1 3.12-5.617 2.86 2.86 0 0 0 .337-1.371v-7.016c0-.433-.274-.847-.727-.922-.496-.082-1.074.215-1.078.782-.008 1.593 0 3.187.016 4.781.003.297-.063.582.039.875.093.258.293.66.246.934-.098.558-.512.84-.875 1.254-.746.851-1.524 1.664-2.227 2.554-.066.082-.16.11-.281.074a.071.071 0 0 1-.043-.039zM19.688 68.574c.484.52.992 1.14 1.57 1.54a4.93 4.93 0 0 1 1.953 2.652c.137.425.348.953.34 1.406-.008.629-.063 1.234-.02 1.883.035.488.094 1.183-.148 1.625-.012.02-.028.035-.047.039-.168.066-.34.097-.516.097-1.351.008-2.699.008-4.05 0-.192 0-.375-.039-.563-.062-.437-.05-.352-.645-.344-1.055.008-.398-.18-.847-.398-1.242-.38-.68-.781-1.352-1.14-2.039-.56-1.066-1.24-2.203-1.75-3.137-.169-.308-.403-.726-.454-1.11-.027-.23-.101-.44-.113-.66-.02-.343 0-.792.004-1.027 0-1.921.004-3.847 0-5.77 0-.128.047-.347.136-.663.114-.375.332-.645.665-.805.218-.105.765-.133 1.003-.05.688.238.95 1.027.946 1.683-.004 1.398-.008 2.797-.016 4.2 0 .14.04.253.106.37a.11.11 0 0 0 .117.063c.539-.055.867.113 1.27.492.527.492 1.058 1.16 1.448 1.57zm-.223 3.145c-.125.082-.238.078-.344-.016-.476-.437-.887-1.008-1.34-1.465-.718-.722-1.785-1.734-1.77-2.539.009-.375.305-.691.302-1.082-.02-1.691-.02-3.383-.004-5.074.003-.535-.375-1.113-.98-1.031-.79.105-.919.761-.911 1.43.02 2.183-.004 4.367.012 6.55 0 .457.105.914.304 1.297.442.844 1.094 1.918 1.606 2.84a298.895 298.895 0 0 1 1.715 3.105c.11.204.183.403.218.594.067.352-.144.738.157 1.027a.103.103 0 0 0 .058.028c.114.02.27.027.461.027 1.215.008 2.43.004 3.649-.004.351 0 .457-.125.457-.476v-2.82c0-.313-.075-.606-.114-.919-.062-.453-.453-1.207-.742-1.558a8.344 8.344 0 0 0-1.504-1.442c-.554-.418-.957-.859-1.37-1.379-.395-.496-.833-.91-1.22-1.394-.375-.469-1.488-.973-1.636.027-.043.282-.067.715.144.942.86.93 1.703 1.867 2.543 2.808.13.149.227.313.32.477a.037.037 0 0 1-.011.047zM58.203 67.832a.218.218 0 0 1-.11-.195c-.003-.742-.058-1.496-.038-2.219.027-.992-.04-1.992.015-2.992 0-.02.008-.04.02-.059a.477.477 0 0 1 .34-.168c.726-.047 1.445-.035 2.172-.027 1.046.012 2.066.355 2.359 1.45.05.19.07.476.059.855-.016.57-.04 1.144-.024 1.714.02.79-.434 1.207-1.05 1.59-.11.067-.29.074-.419.074-1.074.004-2.152.004-3.23 0a.208.208 0 0 1-.094-.023zM58.066 76.46c.032.017.063.02.09.013.02-.004.035.007.043.023l.137.332c.008.02.023.035.039.043.082.035.191.297.227.379.062.148.152.234.308.242.113.008.219-.082.348-.094.008 0 .015.004.023.008.008.008.012.016.008.024.004.156-.187.21-.32.246a.07.07 0 0 0-.047.047l-.05.187a.087.087 0 0 0 .003.063.777.777 0 0 1-.031.734c-.004.008-.012.012-.016.012-.008.004-.016 0-.02-.004-.027-.02-.058-.02-.09 0a.619.619 0 0 0 0-.606c-.34-.613-.616-1.035-.652-1.648zM60.734 77.457c.024-.09-.03-.586.118-.488.027.015.039.043.043.074l.003 1.293c.004.023-.011.043-.03.05-1.2.594-1.18-1.335-.169-.91.008.004.016 0 .02 0 .008-.003.015-.011.015-.019zM69.441 77.395l-.023-.23c0-.02-.008-.04-.023-.052-.07-.07.02-.125.074-.156a.042.042 0 0 1 .043 0c.015.008.023.023.027.04.035.41.121.983.031 1.382a.056.056 0 0 1-.035.043c-.285.105-.637.242-.8-.133-.18-.41-.012-1.152.609-.828a.078.078 0 0 0 .066-.004.071.071 0 0 0 .031-.062zm0 0"/></svg>