<?xml version="1.0" encoding="UTF-8"?>
<svg xmlns="http://www.w3.org/2000/svg" xmlns:xlink="http://www.w3.org/1999/xlink" width="79px" height="100px" viewBox="0 0 79 99" version="1.1">
<g id="surface1">
<path style="fill:none;stroke-width:2;stroke-linecap:butt;stroke-linejoin:miter;stroke:rgb(50.196078%,5.098039%,31.372549%);stroke-opacity:1;stroke-miterlimit:4;" d="M 104.800485 211.858665 C 103.70179 210.883049 101.47943 206.330177 99.681566 208.556581 C 99.456833 208.806739 99.356952 209.15696 99.431863 209.482165 L 104.4509 243.453598 C 104.47587 243.753788 104.725574 243.953914 105.025218 243.953914 C 122.454509 244.003946 139.858831 244.078993 157.238182 244.204072 C 162.606804 244.229088 166.676968 243.803819 169.473645 242.903251 C 174.36783 241.352273 178.512905 238.675584 181.958811 234.923217 C 190.348843 225.742424 191.672271 206.705414 189.524822 195.498343 C 187.751928 186.267519 180.410651 173.659564 170.297666 171.683318 C 160.384444 169.757102 148.723299 167.730824 135.314231 165.654514 C 126.125148 164.203598 123.553204 152.27107 129.396262 146.092172 C 132.367731 142.940183 148.79821 143.840751 159.510483 143.940814 C 165.503362 143.990846 172.495055 145.491793 176.515279 150.319839 C 176.740012 150.595013 177.014686 150.795139 177.3393 150.920218 C 178.562846 151.445549 179.411837 152.396149 179.861303 153.772017 C 179.936214 153.972143 180.061066 154.122238 180.260829 154.197285 C 180.435621 154.297348 180.660354 154.297348 180.835146 154.222301 L 182.008752 153.721985 C 182.358337 153.571891 182.58307 153.196654 182.508159 152.821417 L 177.489122 119.275253 C 177.36427 118.499763 176.690071 117.974432 175.940961 117.999448 C 163.181121 118.69989 150.246489 117.824337 137.48665 117.774306 C 128.547271 117.724274 122.279717 118.274621 118.683989 119.400331 C 105.424743 123.552951 100.230914 134.184659 98.083465 147.142835 C 95.361699 163.503157 100.280854 182.039852 115.76246 189.744713 C 118.73393 191.24566 123.727996 192.54648 130.694719 193.697206 C 137.586531 194.847932 144.328521 195.948627 150.895718 197.024306 C 152.54376 197.299479 154.141861 197.774779 155.665051 198.425189 C 164.379697 202.152541 162.432011 217.962516 152.194175 218.187658 C 144.128758 218.362768 133.366545 218.337753 119.932506 218.137626 C 114.538914 218.062579 109.494907 215.961253 104.800485 211.858665 " transform="matrix(0.156436,0,0,0.156151,0,0)"/>
<path style="fill:none;stroke-width:2;stroke-linecap:butt;stroke-linejoin:miter;stroke:rgb(50.196078%,5.098039%,31.372549%);stroke-opacity:1;stroke-miterlimit:4;" d="M 338.447884 487.557607 C 338.722557 488.483191 346.213657 487.782749 347.262411 487.682686 C 349.235067 487.507576 349.734474 486.556976 348.810572 484.830887 C 346.038865 479.727667 344.290941 475.600063 344.21603 469.521228 C 344.116149 462.441761 344.016268 455.187184 343.941357 447.732481 C 343.916386 447.38226 344.21603 447.082071 344.565615 447.082071 C 354.578718 446.856929 364.641762 446.73185 374.804688 446.73185 C 389.062747 446.681818 398.601414 438.226484 402.621638 424.893071 C 402.971222 423.692314 402.8214 422.29143 403.645421 421.065657 C 403.820214 420.790483 403.920095 420.490294 403.945065 420.165088 C 404.169798 415.962437 404.194769 411.759785 404.044947 407.557134 C 403.920095 404.280066 404.868968 393.773438 403.495599 391.897254 C 403.295837 391.62208 403.195955 391.321891 403.146015 390.996686 C 401.672765 379.714568 396.154322 371.759549 386.565714 367.156645 C 384.443236 366.105982 381.796381 365.455571 378.675089 365.180398 C 365.690516 363.97964 353.005587 365.855824 339.971074 365.030303 C 329.333712 364.379893 321.218354 364.429924 311.979331 364.705098 C 309.657091 364.780145 309.082773 365.830808 310.256379 367.832071 C 313.277789 372.985322 314.776009 378.463778 314.776009 384.242424 C 314.776009 411.659722 314.751038 439.07702 314.726068 466.494318 C 314.726068 474.474353 312.60359 479.102273 309.906794 485.781487 C 309.756972 486.156723 309.806913 486.607008 310.031646 486.932213 C 310.281349 487.282434 310.655904 487.48256 311.0804 487.457544 C 313.777195 487.432528 316.598843 487.507576 319.520372 487.707702 C 325.787925 488.107955 332.055479 487.207386 338.447884 487.557607 " transform="matrix(0.156436,0,0,0.156151,0,0)"/>
<path style="fill:none;stroke-width:2;stroke-linecap:butt;stroke-linejoin:miter;stroke:rgb(50.196078%,5.098039%,31.372549%);stroke-opacity:1;stroke-miterlimit:4;" d="M 344.490704 388.169902 C 344.19106 388.194918 343.966327 388.42006 343.966327 388.720249 C 344.016268 398.751578 344.016268 408.482718 343.941357 417.938684 C 343.941357 420.090041 344.016268 421.64102 344.21603 422.616635 C 344.265971 422.916824 344.515674 423.141967 344.815318 423.191998 C 351.057902 423.992503 357.70001 424.042535 364.791584 423.292061 C 368.287431 422.94184 370.934286 421.565972 372.70718 419.189473 C 376.103145 414.661616 375.828471 398.351326 373.281497 393.473248 C 370.235117 387.694602 365.116199 388.094855 358.199417 387.894729 C 353.579905 387.76965 349.010334 387.869713 344.490704 388.169902 " transform="matrix(0.156436,0,0,0.156151,0,0)"/>
<path style=" stroke:none;fill-rule:nonzero;fill:rgb(100%,3.921569%,0%);fill-opacity:1;" d="M 7.640625 75.9375 C 5.078125 73.363281 2.867188 70.167969 2.539062 66.46875 C 2.511719 66.164062 2.5 65.125 2.5 63.347656 C 2.503906 43.847656 2.503906 24.34375 2.5 4.835938 C 2.5 4.632812 2.605469 4.527344 2.8125 4.527344 L 75.488281 4.527344 C 75.527344 4.527344 75.558594 4.5625 75.558594 4.601562 C 75.554688 17.335938 75.558594 30.078125 75.5625 42.824219 C 75.5625 43.804688 75.574219 44.84375 75.597656 45.945312 C 75.71875 52.179688 75.757812 58.414062 75.710938 64.648438 C 75.699219 66.28125 75.589844 67.898438 75.007812 69.488281 C 74.070312 72.046875 71.957031 74.671875 70.015625 76.492188 C 67.125 79.203125 63.875 81.671875 60.269531 83.890625 C 53.617188 87.984375 46.644531 91.539062 39.347656 94.558594 C 39.164062 94.632812 38.980469 94.632812 38.796875 94.558594 C 32.078125 91.761719 25.578125 88.488281 19.292969 84.734375 C 15.117188 82.238281 11.070312 79.382812 7.640625 75.9375 Z M 72.273438 7.847656 C 72.273438 7.824219 72.253906 7.808594 72.234375 7.808594 L 39.148438 7.808594 C 39.128906 7.808594 39.109375 7.824219 39.109375 7.847656 L 39.109375 49.304688 C 39.109375 49.328125 39.128906 49.347656 39.148438 49.347656 L 72.234375 49.347656 C 72.253906 49.347656 72.273438 49.328125 72.273438 49.304688 Z M 16.394531 33.082031 C 16.222656 32.929688 15.875 32.21875 15.59375 32.566406 C 15.558594 32.605469 15.542969 32.660156 15.554688 32.710938 L 16.339844 38.015625 C 16.34375 38.0625 16.382812 38.09375 16.429688 38.09375 C 19.15625 38.101562 21.878906 38.113281 24.597656 38.132812 C 25.4375 38.136719 26.074219 38.070312 26.511719 37.929688 C 27.277344 37.6875 27.925781 37.269531 28.464844 36.683594 C 29.777344 35.25 29.984375 32.277344 29.648438 30.527344 C 29.371094 29.085938 28.222656 27.117188 26.640625 26.808594 C 25.089844 26.507812 23.265625 26.191406 21.167969 25.867188 C 19.730469 25.640625 19.328125 23.777344 20.242188 22.8125 C 20.707031 22.320312 23.277344 22.460938 24.953125 22.476562 C 25.890625 22.484375 26.984375 22.71875 27.613281 23.472656 C 27.648438 23.515625 27.691406 23.546875 27.742188 23.566406 C 27.933594 23.648438 28.066406 23.796875 28.136719 24.011719 C 28.148438 24.042969 28.167969 24.066406 28.199219 24.078125 C 28.226562 24.09375 28.261719 24.09375 28.289062 24.082031 L 28.472656 24.003906 C 28.527344 23.980469 28.5625 23.921875 28.550781 23.863281 L 27.765625 18.625 C 27.746094 18.503906 27.640625 18.421875 27.523438 18.425781 C 25.527344 18.535156 23.503906 18.398438 21.507812 18.390625 C 20.109375 18.382812 19.128906 18.46875 18.566406 18.644531 C 16.492188 19.292969 15.679688 20.953125 15.34375 22.976562 C 14.917969 25.53125 15.6875 28.425781 18.109375 29.628906 C 18.574219 29.863281 19.355469 30.066406 20.445312 30.246094 C 21.523438 30.425781 22.578125 30.597656 23.605469 30.765625 C 23.863281 30.808594 24.113281 30.882812 24.351562 30.984375 C 25.714844 31.566406 25.410156 34.035156 23.808594 34.070312 C 22.546875 34.097656 20.863281 34.09375 18.761719 34.0625 C 17.917969 34.050781 17.128906 33.722656 16.394531 33.082031 Z M 11.128906 74.738281 C 14.097656 77.382812 17.289062 79.734375 20.699219 81.789062 C 26.546875 85.3125 32.574219 88.363281 38.785156 90.941406 C 39 91.03125 39.109375 90.957031 39.109375 90.726562 L 39.109375 49.65625 C 39.109375 49.570312 39.039062 49.5 38.953125 49.5 L 6.027344 49.5 C 5.984375 49.5 5.949219 49.535156 5.949219 49.578125 C 5.941406 55.101562 5.941406 60.625 5.945312 66.152344 C 5.949219 69.378906 8.777344 72.640625 11.128906 74.738281 Z M 52.945312 76.132812 C 52.988281 76.277344 54.160156 76.167969 54.324219 76.152344 C 54.632812 76.125 54.710938 75.976562 54.566406 75.707031 C 54.132812 74.910156 53.859375 74.265625 53.847656 73.316406 C 53.832031 72.210938 53.816406 71.078125 53.804688 69.914062 C 53.800781 69.859375 53.847656 69.8125 53.902344 69.8125 C 55.46875 69.777344 57.042969 69.757812 58.632812 69.757812 C 60.863281 69.75 62.355469 68.429688 62.984375 66.347656 C 63.039062 66.160156 63.015625 65.941406 63.144531 65.75 C 63.171875 65.707031 63.1875 65.660156 63.191406 65.609375 C 63.226562 64.953125 63.230469 64.296875 63.207031 63.640625 C 63.1875 63.128906 63.335938 61.488281 63.121094 61.195312 C 63.089844 61.152344 63.074219 61.105469 63.066406 61.054688 C 62.835938 59.292969 61.972656 58.050781 60.472656 57.332031 C 60.140625 57.167969 59.726562 57.066406 59.238281 57.023438 C 57.207031 56.835938 55.222656 57.128906 53.183594 57 C 51.519531 56.898438 50.25 56.90625 48.804688 56.949219 C 48.441406 56.960938 48.351562 57.125 48.535156 57.4375 C 49.007812 58.242188 49.242188 59.097656 49.242188 60 C 49.242188 64.28125 49.238281 68.5625 49.234375 72.84375 C 49.234375 74.089844 48.902344 74.8125 48.480469 75.855469 C 48.457031 75.914062 48.464844 75.984375 48.5 76.035156 C 48.539062 76.089844 48.597656 76.121094 48.664062 76.117188 C 49.085938 76.113281 49.527344 76.125 49.984375 76.15625 C 50.964844 76.21875 51.945312 76.078125 52.945312 76.132812 Z M 52.945312 76.132812 "/>
<path style=" stroke:none;fill-rule:nonzero;fill:rgb(100%,3.921569%,0%);fill-opacity:1;" d="M 47.523438 17.300781 L 51.929688 21.699219 C 52.042969 21.8125 52.042969 21.996094 51.929688 22.109375 L 51.847656 22.195312 C 51.730469 22.308594 51.546875 22.308594 51.433594 22.195312 L 47.023438 17.796875 C 46.910156 17.683594 46.910156 17.496094 47.023438 17.382812 L 47.109375 17.300781 C 47.222656 17.183594 47.410156 17.183594 47.523438 17.300781 Z M 47.523438 17.300781 "/>
<path style=" stroke:none;fill-rule:nonzero;fill:rgb(100%,3.921569%,0%);fill-opacity:1;" d="M 59.378906 21.691406 L 63.746094 17.34375 C 63.875 17.21875 64.082031 17.21875 64.207031 17.347656 L 64.21875 17.355469 C 64.34375 17.480469 64.34375 17.6875 64.214844 17.816406 L 59.847656 22.160156 C 59.71875 22.289062 59.511719 22.289062 59.386719 22.160156 L 59.375 22.152344 C 59.25 22.023438 59.25 21.816406 59.378906 21.691406 Z M 59.378906 21.691406 "/>
<path style=" stroke:none;fill-rule:nonzero;fill:rgb(0.392157%,6.27451%,62.352941%);fill-opacity:1;" d="M 16.394531 33.082031 C 17.128906 33.722656 17.917969 34.050781 18.761719 34.0625 C 20.863281 34.09375 22.546875 34.097656 23.808594 34.070312 C 25.410156 34.035156 25.714844 31.566406 24.351562 30.984375 C 24.113281 30.882812 23.863281 30.808594 23.605469 30.765625 C 22.578125 30.597656 21.523438 30.425781 20.445312 30.246094 C 19.355469 30.066406 18.574219 29.863281 18.109375 29.628906 C 15.6875 28.425781 14.917969 25.53125 15.34375 22.976562 C 15.679688 20.953125 16.492188 19.292969 18.566406 18.644531 C 19.128906 18.46875 20.109375 18.382812 21.507812 18.390625 C 23.503906 18.398438 25.527344 18.535156 27.523438 18.425781 C 27.640625 18.421875 27.746094 18.503906 27.765625 18.625 L 28.550781 23.863281 C 28.5625 23.921875 28.527344 23.980469 28.472656 24.003906 L 28.289062 24.082031 C 28.261719 24.09375 28.226562 24.09375 28.199219 24.078125 C 28.167969 24.066406 28.148438 24.042969 28.136719 24.011719 C 28.066406 23.796875 27.933594 23.648438 27.742188 23.566406 C 27.691406 23.546875 27.648438 23.515625 27.613281 23.472656 C 26.984375 22.71875 25.890625 22.484375 24.953125 22.476562 C 23.277344 22.460938 20.707031 22.320312 20.242188 22.8125 C 19.328125 23.777344 19.730469 25.640625 21.167969 25.867188 C 23.265625 26.191406 25.089844 26.507812 26.640625 26.808594 C 28.222656 27.117188 29.371094 29.085938 29.648438 30.527344 C 29.984375 32.277344 29.777344 35.25 28.464844 36.683594 C 27.925781 37.269531 27.277344 37.6875 26.511719 37.929688 C 26.074219 38.070312 25.4375 38.136719 24.597656 38.132812 C 21.878906 38.113281 19.15625 38.101562 16.429688 38.09375 C 16.382812 38.09375 16.34375 38.0625 16.339844 38.015625 L 15.554688 32.710938 C 15.542969 32.660156 15.558594 32.605469 15.59375 32.566406 C 15.875 32.21875 16.222656 32.929688 16.394531 33.082031 Z M 16.394531 33.082031 "/>
<path style=" stroke:none;fill-rule:nonzero;fill:rgb(100%,3.921569%,0%);fill-opacity:1;" d="M 53.847656 19.394531 C 54.863281 18.019531 56.9375 18.164062 57.664062 19.726562 C 58.105469 20.671875 57.882812 22.691406 57.878906 23.765625 C 57.878906 23.800781 57.894531 23.839844 57.921875 23.863281 C 57.949219 23.890625 57.984375 23.902344 58.023438 23.902344 C 58.972656 23.867188 60.578125 23.691406 61.390625 24.222656 C 62.761719 25.125 62.894531 27.148438 61.433594 28.046875 C 60.613281 28.550781 59.066406 28.449219 58.105469 28.402344 C 58.046875 28.402344 57.988281 28.421875 57.949219 28.460938 C 57.90625 28.503906 57.882812 28.558594 57.882812 28.617188 C 57.882812 31.089844 57.882812 33.597656 57.878906 36.132812 C 57.878906 36.695312 57.8125 37.132812 57.671875 37.441406 C 56.632812 39.773438 53.425781 38.832031 53.367188 36.351562 C 53.324219 34.601562 53.320312 33.324219 53.355469 32.519531 C 53.394531 31.449219 53.328125 30.527344 53.394531 29.539062 C 53.417969 29.21875 53.402344 28.894531 53.351562 28.5625 C 53.339844 28.480469 53.269531 28.421875 53.1875 28.421875 C 51.757812 28.414062 49.941406 28.734375 49.097656 27.285156 C 48.359375 26.023438 48.964844 24.449219 50.378906 24.023438 C 51.132812 23.796875 52.304688 23.890625 53.203125 23.890625 C 53.277344 23.890625 53.339844 23.832031 53.347656 23.753906 C 53.449219 22.472656 53.054688 20.464844 53.847656 19.394531 Z M 57.300781 24.449219 C 57.25 23.296875 57.234375 22.097656 57.25 20.859375 C 57.277344 18.636719 54.097656 18.585938 54.113281 20.761719 C 54.121094 21.9375 54.125 23.113281 54.128906 24.296875 C 54.128906 24.539062 54.007812 24.660156 53.765625 24.664062 C 52.925781 24.675781 52.070312 24.664062 51.203125 24.625 C 49.492188 24.550781 48.820312 26.664062 50.164062 27.453125 C 50.804688 27.824219 52.605469 27.636719 53.390625 27.648438 C 53.832031 27.652344 54.125 27.578125 54.125 28.105469 C 54.128906 30.910156 54.128906 33.714844 54.125 36.519531 C 54.125 38.308594 56.433594 38.679688 57.078125 37.167969 C 57.195312 36.890625 57.253906 36.410156 57.253906 35.722656 C 57.253906 33.09375 57.253906 30.503906 57.253906 27.953125 C 57.253906 27.757812 57.351562 27.65625 57.550781 27.652344 C 58.527344 27.628906 59.421875 27.628906 60.226562 27.648438 C 62.4375 27.707031 62.257812 24.539062 60.226562 24.636719 C 59.445312 24.675781 58.539062 24.683594 57.511719 24.65625 C 57.394531 24.652344 57.304688 24.5625 57.300781 24.449219 Z M 57.300781 24.449219 "/>
<path style=" stroke:none;fill-rule:nonzero;fill:rgb(100%,3.921569%,0%);fill-opacity:1;" d="M 45.117188 25.765625 L 47.792969 25.761719 C 47.996094 25.761719 48.160156 25.925781 48.160156 26.128906 L 48.160156 26.167969 C 48.164062 26.371094 47.996094 26.535156 47.792969 26.539062 L 45.121094 26.542969 C 44.917969 26.542969 44.75 26.378906 44.75 26.175781 L 44.75 26.136719 C 44.75 25.933594 44.914062 25.769531 45.117188 25.765625 Z M 45.117188 25.765625 "/>
<path style=" stroke:none;fill-rule:nonzero;fill:rgb(100%,3.921569%,0%);fill-opacity:1;" d="M 63.457031 25.761719 L 66.132812 25.777344 C 66.34375 25.78125 66.511719 25.949219 66.507812 26.15625 L 66.507812 26.183594 C 66.507812 26.390625 66.335938 26.558594 66.128906 26.554688 L 63.449219 26.539062 C 63.242188 26.535156 63.074219 26.367188 63.078125 26.160156 L 63.078125 26.132812 C 63.078125 25.925781 63.246094 25.757812 63.457031 25.761719 Z M 63.457031 25.761719 "/>
<path style=" stroke:none;fill-rule:nonzero;fill:rgb(100%,3.921569%,0%);fill-opacity:1;" d="M 47.074219 34.070312 L 51.847656 29.5625 C 51.980469 29.4375 52.191406 29.441406 52.316406 29.574219 L 52.324219 29.585938 C 52.453125 29.71875 52.445312 29.925781 52.3125 30.054688 L 47.539062 34.558594 C 47.40625 34.683594 47.195312 34.679688 47.070312 34.546875 L 47.0625 34.535156 C 46.933594 34.402344 46.941406 34.195312 47.074219 34.070312 Z M 47.074219 34.070312 "/>
<path style=" stroke:none;fill-rule:nonzero;fill:rgb(100%,3.921569%,0%);fill-opacity:1;" d="M 59.449219 29.570312 L 64.214844 34.070312 C 64.347656 34.199219 64.355469 34.410156 64.226562 34.542969 L 64.21875 34.554688 C 64.09375 34.6875 63.878906 34.691406 63.746094 34.566406 L 58.980469 30.066406 C 58.84375 29.941406 58.839844 29.726562 58.964844 29.59375 L 58.972656 29.585938 C 59.101562 29.449219 59.3125 29.445312 59.449219 29.570312 Z M 59.449219 29.570312 "/>
<path style=" stroke:none;fill-rule:nonzero;fill:rgb(100%,3.921569%,0%);fill-opacity:1;" d="M 23.796875 67.519531 L 23.851562 69.90625 C 23.851562 69.953125 23.828125 69.996094 23.785156 70.019531 C 23.628906 70.117188 23.453125 70.144531 23.257812 70.109375 C 23.199219 70.097656 23.152344 70.046875 23.152344 69.984375 L 23.152344 67.617188 C 23.152344 67.488281 23.050781 67.382812 22.921875 67.375 C 20.683594 67.210938 19.105469 65.902344 18.957031 63.6875 C 18.9375 63.417969 19.0625 63.269531 19.332031 63.234375 C 20.972656 63.03125 21.78125 63.601562 23.007812 64.492188 C 23.105469 64.5625 23.152344 64.539062 23.152344 64.417969 L 23.152344 62.660156 C 23.152344 62.566406 23.078125 62.488281 22.980469 62.488281 C 20.957031 62.445312 18.980469 61.019531 18.964844 58.839844 C 18.960938 58.503906 19.128906 58.324219 19.46875 58.300781 C 20.828125 58.207031 21.976562 58.640625 22.910156 59.605469 C 23.074219 59.773438 23.15625 59.742188 23.152344 59.507812 L 23.152344 57.710938 C 23.152344 57.671875 23.117188 57.636719 23.078125 57.632812 C 21.449219 57.515625 20.136719 56.660156 20.007812 54.921875 C 19.988281 54.699219 20.089844 54.558594 20.308594 54.507812 C 21.601562 54.203125 22.578125 54.777344 23.449219 55.707031 C 23.464844 55.722656 23.484375 55.730469 23.503906 55.730469 C 23.523438 55.730469 23.542969 55.722656 23.558594 55.707031 C 24.480469 54.742188 25.375 54.203125 26.777344 54.539062 C 26.824219 54.550781 26.863281 54.585938 26.878906 54.632812 C 27.398438 56.332031 25.460938 57.550781 24.003906 57.617188 C 23.886719 57.625 23.792969 57.722656 23.796875 57.839844 L 23.808594 59.550781 C 23.8125 59.65625 23.855469 59.679688 23.9375 59.617188 C 25.125 58.761719 25.960938 58.230469 27.464844 58.246094 C 27.773438 58.25 27.960938 58.402344 28.019531 58.703125 C 28.074219 58.964844 28.046875 59.269531 27.9375 59.613281 C 27.515625 60.964844 26.65625 61.847656 25.363281 62.273438 C 24.9375 62.414062 24.382812 62.460938 23.890625 62.546875 C 23.832031 62.558594 23.789062 62.609375 23.789062 62.667969 L 23.804688 64.359375 C 23.804688 64.605469 23.898438 64.648438 24.085938 64.492188 C 25.355469 63.4375 25.925781 63.183594 27.613281 63.214844 C 27.960938 63.21875 28.109375 63.421875 28.054688 63.824219 C 27.796875 65.667969 26.78125 66.820312 25.007812 67.28125 C 24.6875 67.367188 24.253906 67.320312 23.878906 67.414062 C 23.832031 67.425781 23.796875 67.46875 23.796875 67.519531 Z M 23.011719 56.757812 C 23.203125 56.480469 22.875 55.921875 22.273438 55.507812 C 21.675781 55.09375 21.035156 54.980469 20.84375 55.257812 C 20.648438 55.535156 20.980469 56.09375 21.582031 56.507812 C 22.179688 56.921875 22.820312 57.035156 23.011719 56.757812 Z M 26.121094 55.25 C 25.921875 54.980469 25.289062 55.105469 24.710938 55.527344 C 24.132812 55.949219 23.824219 56.511719 24.019531 56.785156 C 24.21875 57.054688 24.851562 56.929688 25.429688 56.507812 C 26.007812 56.085938 26.316406 55.523438 26.121094 55.25 Z M 27.179688 59.113281 C 26.871094 58.734375 25.914062 58.992188 25.042969 59.691406 C 24.175781 60.394531 23.71875 61.269531 24.027344 61.652344 C 24.335938 62.035156 25.292969 61.777344 26.164062 61.074219 C 27.03125 60.375 27.488281 59.496094 27.179688 59.113281 Z M 23.113281 61.492188 C 22.824219 60.089844 21.472656 58.867188 20.046875 58.988281 C 19.722656 59.015625 19.613281 59.183594 19.722656 59.488281 C 20.230469 60.925781 21.257812 61.707031 22.808594 61.835938 C 23.0625 61.855469 23.164062 61.742188 23.113281 61.492188 Z M 19.691406 64.164062 C 20.023438 65.640625 21.394531 66.828125 22.941406 66.652344 C 23.007812 66.644531 23.066406 66.609375 23.101562 66.554688 C 23.140625 66.5 23.152344 66.429688 23.132812 66.367188 C 22.675781 64.796875 21.617188 63.957031 19.960938 63.847656 C 19.730469 63.835938 19.640625 63.9375 19.691406 64.164062 Z M 24.148438 66.6875 C 25.527344 66.640625 27.4375 65.550781 27.230469 63.9375 C 27.222656 63.894531 27.183594 63.859375 27.140625 63.859375 C 25.777344 63.851562 23.890625 64.933594 23.929688 66.480469 C 23.929688 66.539062 23.953125 66.589844 23.996094 66.628906 C 24.035156 66.667969 24.09375 66.691406 24.148438 66.6875 Z M 24.148438 66.6875 "/>
<path style=" stroke:none;fill-rule:nonzero;fill:rgb(0.392157%,6.27451%,62.352941%);fill-opacity:1;" d="M 52.945312 76.132812 C 51.945312 76.078125 50.964844 76.21875 49.984375 76.15625 C 49.527344 76.125 49.085938 76.113281 48.664062 76.117188 C 48.597656 76.121094 48.539062 76.089844 48.5 76.035156 C 48.464844 75.984375 48.457031 75.914062 48.480469 75.855469 C 48.902344 74.8125 49.234375 74.089844 49.234375 72.84375 C 49.238281 68.5625 49.242188 64.28125 49.242188 60 C 49.242188 59.097656 49.007812 58.242188 48.535156 57.4375 C 48.351562 57.125 48.441406 56.960938 48.804688 56.949219 C 50.25 56.90625 51.519531 56.898438 53.183594 57 C 55.222656 57.128906 57.207031 56.835938 59.238281 57.023438 C 59.726562 57.066406 60.140625 57.167969 60.472656 57.332031 C 61.972656 58.050781 62.835938 59.292969 63.066406 61.054688 C 63.074219 61.105469 63.089844 61.152344 63.121094 61.195312 C 63.335938 61.488281 63.1875 63.128906 63.207031 63.640625 C 63.230469 64.296875 63.226562 64.953125 63.191406 65.609375 C 63.1875 65.660156 63.171875 65.707031 63.144531 65.75 C 63.015625 65.941406 63.039062 66.160156 62.984375 66.347656 C 62.355469 68.429688 60.863281 69.75 58.632812 69.757812 C 57.042969 69.757812 55.46875 69.777344 53.902344 69.8125 C 53.847656 69.8125 53.800781 69.859375 53.804688 69.914062 C 53.816406 71.078125 53.832031 72.210938 53.847656 73.316406 C 53.859375 74.265625 54.132812 74.910156 54.566406 75.707031 C 54.710938 75.976562 54.632812 76.125 54.324219 76.152344 C 54.160156 76.167969 52.988281 76.277344 52.945312 76.132812 Z M 53.890625 60.613281 C 53.84375 60.617188 53.808594 60.652344 53.808594 60.699219 C 53.816406 62.265625 53.816406 63.785156 53.804688 65.261719 C 53.804688 65.597656 53.816406 65.839844 53.847656 65.992188 C 53.855469 66.039062 53.894531 66.074219 53.941406 66.082031 C 54.917969 66.207031 55.957031 66.214844 57.066406 66.097656 C 57.613281 66.042969 58.027344 65.828125 58.304688 65.457031 C 58.835938 64.75 58.792969 62.203125 58.394531 61.441406 C 57.917969 60.539062 57.117188 60.601562 56.035156 60.570312 C 55.3125 60.550781 54.597656 60.566406 53.890625 60.613281 Z M 53.890625 60.613281 "/>
<path style=" stroke:none;fill-rule:nonzero;fill:rgb(100%,3.921569%,0%);fill-opacity:1;" d="M 16.972656 75.394531 C 16.710938 75.386719 16.570312 75.253906 16.550781 74.992188 L 16.472656 73.851562 C 16.460938 73.6875 16.414062 73.53125 16.332031 73.386719 C 15.246094 71.46875 14.222656 69.632812 13.261719 67.878906 C 13.054688 67.507812 12.992188 66.945312 12.988281 66.457031 C 12.980469 64.5 12.980469 62.542969 12.988281 60.589844 C 12.992188 60.117188 13.027344 59.78125 13.09375 59.585938 C 13.523438 58.339844 15.253906 58.339844 15.695312 59.578125 C 15.761719 59.769531 15.796875 60.082031 15.796875 60.519531 C 15.800781 61.808594 15.800781 63.097656 15.800781 64.394531 C 15.800781 64.488281 15.871094 64.570312 15.964844 64.585938 L 16.511719 64.660156 C 16.5625 64.667969 16.609375 64.683594 16.648438 64.710938 C 17.007812 64.957031 17.34375 65.269531 17.65625 65.644531 C 18.4375 66.589844 19.328125 67.464844 20.300781 68.300781 C 22.515625 70.199219 22.03125 72.484375 22.0625 75.078125 C 22.0625 75.128906 22.039062 75.179688 22.003906 75.214844 C 21.730469 75.503906 21.472656 75.40625 21.117188 75.414062 C 19.722656 75.4375 18.339844 75.429688 16.972656 75.394531 Z M 17.421875 74.722656 C 18.480469 74.75 19.476562 74.75 20.417969 74.714844 C 20.699219 74.703125 21.003906 74.886719 21.335938 74.660156 C 21.378906 74.632812 21.40625 74.585938 21.410156 74.539062 C 21.523438 72.902344 21.554688 70.949219 20.707031 69.714844 C 20.523438 69.449219 20.199219 69.109375 19.738281 68.703125 C 18.683594 67.769531 17.699219 66.765625 16.785156 65.691406 C 15.976562 64.734375 14.984375 65.632812 15.761719 66.5 C 16.640625 67.484375 17.511719 68.441406 18.367188 69.375 C 18.414062 69.421875 18.433594 69.488281 18.429688 69.554688 C 18.421875 69.621094 18.382812 69.679688 18.328125 69.71875 C 18.144531 69.84375 17.988281 69.84375 17.867188 69.726562 C 17.195312 69.0625 16.542969 68.378906 15.914062 67.675781 C 15.34375 67.039062 15.046875 66.699219 15.019531 66.652344 C 14.726562 66.183594 14.726562 65.6875 15.019531 65.167969 C 15.121094 64.980469 15.175781 64.78125 15.175781 64.566406 L 15.167969 60.128906 C 15.167969 59.816406 15.03125 59.585938 14.757812 59.433594 C 14.449219 59.265625 14.152344 59.308594 13.867188 59.5625 C 13.738281 59.679688 13.671875 59.824219 13.664062 59.996094 C 13.582031 62.210938 13.578125 64.421875 13.660156 66.636719 C 13.679688 67.125 13.847656 67.585938 14.0625 67.976562 C 14.359375 68.511719 15.265625 70.128906 16.789062 72.824219 C 17.125 73.417969 17.296875 73.867188 17.226562 74.5 C 17.222656 74.554688 17.238281 74.609375 17.277344 74.652344 C 17.3125 74.695312 17.367188 74.722656 17.421875 74.722656 Z M 17.421875 74.722656 "/>
<path style=" stroke:none;fill-rule:nonzero;fill:rgb(100%,3.921569%,0%);fill-opacity:1;" d="M 31.183594 64.484375 C 31.480469 63.378906 31.289062 61.613281 31.253906 60.445312 C 31.238281 59.964844 31.273438 59.621094 31.359375 59.417969 C 31.902344 58.117188 33.976562 58.460938 33.945312 60.09375 C 33.90625 62.226562 33.914062 64.355469 33.972656 66.488281 C 34 67.441406 33.738281 67.996094 33.269531 68.773438 C 32.820312 69.519531 31.945312 71.109375 30.644531 73.539062 C 30.40625 73.980469 30.511719 74.605469 30.503906 75.082031 C 30.5 75.308594 30.386719 75.421875 30.160156 75.421875 L 25.410156 75.421875 C 25.066406 75.421875 24.890625 75.25 24.882812 74.90625 C 24.824219 72.117188 24.691406 69.71875 27.15625 67.910156 C 28.113281 67.210938 28.910156 66.144531 29.695312 65.257812 C 30.128906 64.773438 30.457031 64.59375 31.082031 64.5625 C 31.128906 64.558594 31.171875 64.527344 31.183594 64.484375 Z M 28.703125 69.664062 C 28.652344 69.617188 28.617188 69.554688 28.613281 69.484375 C 28.609375 69.414062 28.632812 69.34375 28.679688 69.292969 C 29.582031 68.316406 30.484375 67.332031 31.378906 66.335938 C 31.957031 65.703125 30.914062 64.863281 30.320312 65.558594 C 29.316406 66.726562 28.433594 67.769531 27.195312 68.761719 C 25.351562 70.246094 25.609375 72.253906 25.617188 74.375 C 25.617188 74.652344 25.757812 74.785156 26.039062 74.769531 C 26.988281 74.71875 27.941406 74.695312 28.894531 74.703125 C 29.214844 74.707031 29.535156 74.933594 29.804688 74.519531 C 29.832031 74.476562 29.84375 74.425781 29.839844 74.375 C 29.804688 73.90625 29.839844 73.570312 29.957031 73.355469 C 30.878906 71.667969 31.816406 69.984375 32.765625 68.308594 C 33.140625 67.636719 33.328125 67.199219 33.328125 66.992188 C 33.300781 63.605469 33.296875 61.394531 33.316406 60.351562 C 33.324219 59.992188 33.253906 59.703125 33.101562 59.480469 C 33.074219 59.4375 33.03125 59.40625 32.984375 59.390625 C 32.164062 59.128906 31.894531 59.632812 31.90625 60.363281 C 31.929688 61.800781 31.945312 63.234375 31.957031 64.671875 C 31.960938 65.113281 32.101562 65.460938 32.222656 65.878906 C 32.296875 66.125 32.246094 66.347656 32.078125 66.539062 C 31.203125 67.546875 30.316406 68.546875 29.421875 69.539062 C 29.191406 69.792969 29 69.914062 28.703125 69.664062 Z M 28.703125 69.664062 "/>
<path style=" stroke:none;fill-rule:nonzero;fill:rgb(100%,3.921569%,0%);fill-opacity:1;" d="M 53.890625 60.613281 C 54.597656 60.566406 55.3125 60.550781 56.035156 60.570312 C 57.117188 60.601562 57.917969 60.539062 58.394531 61.441406 C 58.792969 62.203125 58.835938 64.75 58.304688 65.457031 C 58.027344 65.828125 57.613281 66.042969 57.066406 66.097656 C 55.957031 66.214844 54.917969 66.207031 53.941406 66.082031 C 53.894531 66.074219 53.855469 66.039062 53.847656 65.992188 C 53.816406 65.839844 53.804688 65.597656 53.804688 65.261719 C 53.816406 63.785156 53.816406 62.265625 53.808594 60.699219 C 53.808594 60.652344 53.84375 60.617188 53.890625 60.613281 Z M 53.890625 60.613281 "/>
</g>
</svg>
